<svg xmlns="http://www.w3.org/2000/svg" xml:space="preserve" fill-rule="evenodd" stroke-linejoin="round" stroke-miterlimit="2" clip-rule="evenodd" viewBox="0 0 250 250">
  <path fill="#074d39" d="M108.934 4.487a33.993 33.993 0 0 1 31.621 0 1759.816 1759.816 0 0 1 82.694 46.518 33.996 33.996 0 0 1 16.467 28.136 1661.92 1661.92 0 0 1 0 91.657 33.999 33.999 0 0 1-16.467 28.136 1758.778 1758.778 0 0 1-82.694 46.52 33.997 33.997 0 0 1-31.62 0 1759.188 1759.188 0 0 1-82.693-46.519 33.998 33.998 0 0 1-16.468-28.137 1661.25 1661.25 0 0 1 0-91.657 33.997 33.997 0 0 1 16.468-28.136 1759.188 1759.188 0 0 1 82.692-46.518Z"/>
    <g fill="#fff" fill-rule="nonzero">
    <path d="M191.565 60.288H58.433c-5.48 0-9.992 4.513-9.992 9.993V179.72c0 5.48 4.512 9.992 9.992 9.992h133.132c5.48 0 9.993-4.512 9.993-9.992l.001-109.278c0-5.642-4.513-10.155-9.992-10.155l-.002.001ZM96.15 70.603c2.74 0 4.835 2.257 4.835 4.836 0 2.74-2.256 4.835-4.835 4.835-2.74 0-4.836-2.256-4.836-4.835 0-2.58 2.257-4.836 4.836-4.836Zm-14.99 0c2.74 0 4.835 2.257 4.835 4.836 0 2.74-2.256 4.835-4.835 4.835-2.74 0-4.836-2.256-4.836-4.835-.16-2.58 2.096-4.836 4.836-4.836Zm-15.151 0c2.74 0 4.835 2.257 4.835 4.836 0 2.74-2.256 4.835-4.835 4.835-2.74 0-4.836-2.256-4.836-4.835 0-2.58 2.096-4.836 4.836-4.836Zm123.139 106.86H60.85v-86.39h128.297v86.39Z"/>
        <path d="M174.32 120.246c-1.45-8.703-8.866-15.311-17.891-15.311-2.096 0-4.03.483-5.963 1.128l7.736 14.345h16.117v-.162Z"/>
        <path d="M156.429 141.36c9.025 0 16.601-6.608 17.89-15.311h-17.89a3.05 3.05 0 0 1-2.58-1.45l-8.542-15.796c-4.352 3.386-7.252 8.543-7.252 14.506.162 9.832 8.22 18.051 18.374 18.051Zm-77.849 1.29c.967 0 1.773-.484 2.417-1.13l11.122-14.827 9.188 6.769c.644.484 1.45.644 2.256.484.806-.161 1.45-.484 1.934-1.13l10.96-14.828 3.062 2.257c.644.483 1.45.644 2.256.16.807-.322 1.13-1.128 1.29-1.933l.483-12.089c0-.644-.322-1.45-.806-1.773-.644-.483-1.29-.483-1.934-.322l-11.444 3.868c-.806.323-1.29.967-1.45 1.773a2.1 2.1 0 0 0 .806 2.096l3.063 2.256-9.348 12.734-9.187-6.93c-.644-.483-1.45-.644-2.257-.483-.806.16-1.45.483-1.933 1.128l-12.895 17.247c-.967 1.29-.644 3.223.644 4.19.484.322 1.13.482 1.773.482Zm-.967 21.436h8.22c1.129 0 2.096-.967 2.096-2.095v-11.605c0-1.129-.967-2.096-2.096-2.096h-8.22c-1.129 0-2.095.967-2.095 2.096v11.767c.161 1.127.968 1.933 2.095 1.933Zm26.756-23.854h-8.22c-1.129 0-2.096.967-2.096 2.096v19.824c0 1.129.967 2.096 2.096 2.096h8.22c1.128 0 2.095-.967 2.095-2.096v-19.824c0-1.13-.968-2.096-2.095-2.096Zm10.154-8.22c-1.129 0-2.096.967-2.096 2.096v28.045c0 1.128.967 2.095 2.096 2.095h8.22c1.128 0 2.095-.967 2.095-2.095v-28.045c0-1.13-.967-2.096-2.095-2.096h-8.22Zm25.788 32.074h32.074c1.13 0 2.096-.967 2.096-2.095v-8.22c0-1.129-.967-2.096-2.096-2.096h-32.074c-1.129 0-2.095.967-2.095 2.096v8.381c0 1.128.806 1.934 2.095 1.934Z"/>
  </g>
</svg>
